HIERARCHY
ROOT Hips
{
	OFFSET -0.179506 -22.333345 2.821913
	CHANNELS 6 Xposition Yposition Zposition Zrotation Yrotation Xrotation 
	JOINT LeftUpLeg
	{
		OFFSET 6.951974 -9.140623 -0.681533
		CHANNELS 3 Zrotation Yrotation Xrotation
		JOINT LeftLeg
		{
			OFFSET 3.427654 -37.519855 -0.449580
			CHANNELS 3 Zrotation Yrotation Xrotation
			JOINT LeftFoot
			{
				OFFSET -1.359570 -39.796059 -4.369333
				CHANNELS 3 Zrotation Yrotation Xrotation
				JOINT LeftToe
				{
					OFFSET 2.635814 -5.579078 11.928840
					CHANNELS 3 Zrotation Yrotation Xrotation
					End Site
					{
						OFFSET 0.000000 0.000000 0.000000
					}
				}
			}
		}
	}
	JOINT RightUpLeg
	{
		OFFSET -6.767048 -9.052170 -0.431982
		CHANNELS 3 Zrotation Yrotation Xrotation
		JOINT RightLeg
		{
			OFFSET -3.829005 -38.256897 -0.885003
			CHANNELS 3 Zrotation Yrotation Xrotation
			JOINT RightFoot
			{
				OFFSET 1.577377 -39.841461 -4.231180
				CHANNELS 3 Zrotation Yrotation Xrotation
				JOINT RightToe
				{
					OFFSET -2.537174 -4.814398 12.334795
					CHANNELS 3 Zrotation Yrotation Xrotation
					End Site
					{
						OFFSET 0.000000 0.000000 0.000000
					}
				}
			}
		}
	}
	JOINT Spine
	{
		OFFSET -0.253288 10.896323 -2.669631
		CHANNELS 3 Zrotation Yrotation Xrotation
		JOINT Spine1
		{
			OFFSET 0.548704 13.518043 0.109247
			CHANNELS 3 Zrotation Yrotation Xrotation
			JOINT Spine2
			{
				OFFSET 0.145701 5.292222 2.542457
				CHANNELS 3 Zrotation Yrotation Xrotation
				JOINT Neck
				{
					OFFSET -0.277840 21.387037 -4.285703
					CHANNELS 3 Zrotation Yrotation Xrotation
					JOINT Head
					{
						OFFSET 0.515184 6.496960 5.134897
						CHANNELS 3 Zrotation Yrotation Xrotation
						End Site
						{
							OFFSET 0.000000 0.000000 0.000000
						}
					}
				}
				JOINT LeftShoulder
				{
					OFFSET 7.884473 12.174932 -3.408961
					CHANNELS 3 Zrotation Yrotation Xrotation
					JOINT LeftArm
					{
						OFFSET 9.097692 3.046888 -0.886815
						CHANNELS 3 Zrotation Yrotation Xrotation
						JOINT LeftForeArm
						{
							OFFSET 25.961220 -1.277207 -2.745643
							CHANNELS 3 Zrotation Yrotation Xrotation
							JOINT LeftHand
							{
								OFFSET 24.923361 0.898606 -0.117091
								CHANNELS 3 Zrotation Yrotation Xrotation
								End Site
								{
									OFFSET 0.000000 0.000000 0.000000
								}
							}
						}
					}
				}
				JOINT RightShoulder
				{
					OFFSET -8.175920 11.883285 -3.861528
					CHANNELS 3 Zrotation Yrotation Xrotation
					JOINT RightArm
					{
						OFFSET -9.601238 3.255117 -0.914307
						CHANNELS 3 Zrotation Yrotation Xrotation
						JOINT RightForeArm
						{
							OFFSET -25.374195 -1.332924 -2.140099
							CHANNELS 3 Zrotation Yrotation Xrotation
							JOINT RightHand
							{
								OFFSET -25.529810 0.777228 -0.555919
								CHANNELS 3 Zrotation Yrotation Xrotation
								End Site
								{
									OFFSET 0.000000 0.000000 0.000000
								}
							}
						}
					}
				}
			}
		}
	}
}
MOTION
Frames: 7
Frame Time: 0.033333
313.606384 301.603119 89.839531 144.261150 1.413165 79.299730 3.964044 0.723862 10.167411 -7.804689 -17.950125 18.415463 -3.285169 0.054972 -14.708483 nan nan nan -4.258468 -5.235810 -10.131765 0.869366 -8.015515 7.800951 12.929868 -6.033663 10.839500 nan nan nan -1.761236 -0.433534 15.129594 2.581291 -2.510301 -0.399023 2.832516 -3.954404 1.634600 6.382332 -2.631875 -2.062846 8.669576 -3.006522 1.400935 -18.270778 1.319225 1.226466 -58.430498 -19.155792 12.086286 8.649312 -40.999466 -7.249748 8.426055 -16.788188 -32.086304 18.572452 -6.731892 -1.895029 58.180168 -0.290909 10.627839 -10.571946 29.300006 -11.208921 5.879131 9.501082 -22.274327 
313.147064 301.211334 89.912071 143.933994 1.378861 79.252327 3.812542 0.842194 9.830279 -7.699534 -17.625004 18.361517 -3.349064 0.047336 -14.454612 nan nan nan -4.191934 -5.336938 -10.434145 0.778980 -8.494630 8.091917 12.698679 -6.142828 10.282394 nan nan nan -1.770210 -0.429544 15.326174 2.438500 -2.466879 -0.326706 2.674823 -3.870660 1.559179 6.510325 -2.457119 -2.080596 8.714960 -3.222830 1.430765 -18.322763 1.279541 1.119259 -57.680039 -19.314829 11.817372 9.338282 -41.487994 -7.142831 8.266246 -16.860786 -31.152602 18.828056 -6.433056 -1.928655 58.195540 0.036209 10.664796 -10.611582 29.215826 -11.013128 6.034812 9.478097 -22.270462 
312.696899 300.786560 89.995972 143.569718 1.236417 79.032001 3.451838 0.916891 9.643618 -7.374815 -17.077947 18.339993 -3.801391 -0.303268 -14.221878 nan nan nan -4.231028 -5.403562 -10.589698 0.620606 -9.380019 8.583720 12.649533 -6.283748 9.561237 nan nan nan -1.826324 -0.301857 16.056777 2.235355 -2.355649 -0.549852 2.423155 -3.818757 1.278008 7.026984 -1.973671 -2.343179 8.642377 -3.737931 1.716724 -18.649870 1.456240 0.914740 -56.292320 -20.048413 11.037672 9.132583 -40.134671 -5.279340 7.579621 -21.311927 -28.631884 19.247480 -6.608727 -2.328150 58.278982 0.354056 10.639330 -10.501047 28.862034 -10.379003 5.846826 10.965270 -22.458420 
312.229401 300.396118 90.105064 143.075456 1.197352 78.964561 3.168692 0.567942 9.475780 -7.180545 -16.223330 18.006353 -3.965899 -0.265801 -13.949158 nan nan nan -4.143819 -5.451065 -10.917105 0.443564 -10.424321 9.225743 12.540007 -6.462759 9.333430 nan nan nan -2.037434 -0.251389 16.209225 2.296360 -2.213154 -0.450538 2.398356 -3.635396 1.084566 7.090529 -1.761246 -2.262385 8.572002 -4.085296 2.085575 -18.509915 1.891450 0.907105 -56.192167 -19.944162 11.739970 9.534846 -42.446951 -6.478694 7.294442 -23.344383 -30.277894 19.574061 -6.530412 -2.355926 58.044990 0.905376 10.898147 -10.829647 28.717302 -11.188184 6.259696 11.450608 -22.117303 
311.617798 300.154236 90.272987 141.974464 0.817456 79.061727 2.254663 0.823421 9.460672 -6.572734 -15.536574 17.231136 -4.225485 0.058704 -13.528431 nan nan nan -4.393397 -5.605462 -11.720212 0.261546 -11.238703 10.421109 12.688785 -6.304914 9.220276 nan nan nan -1.853983 -0.217733 15.987815 1.940341 -1.770540 0.075160 2.116686 -3.259892 0.569270 7.083016 -1.944276 -1.509808 8.249481 -3.890073 1.653768 -19.120984 2.107320 0.256440 -55.281605 -19.770820 11.332355 10.839392 -43.305541 -7.655460 2.726357 -23.271407 -27.292747 19.750215 -6.306848 -2.370575 57.876706 1.505882 10.428542 -11.369438 28.231666 -11.776690 9.782137 11.294400 -20.364148 
311.115662 299.829163 90.407135 141.524203 0.744237 78.677569 1.980885 1.086869 9.733771 -6.315242 -15.386922 16.811767 -4.394876 0.143841 -13.100120 nan nan nan -4.469493 -5.940293 -11.660195 0.178664 -12.273209 11.426597 12.427033 -6.468879 8.799552 nan nan nan -1.765980 -0.262677 16.463543 1.705265 -1.723907 0.154098 2.027999 -3.067828 0.502014 6.818680 -1.877116 -1.268543 8.388924 -3.918096 1.189115 -18.839644 2.030937 0.052722 -55.026964 -19.461351 11.157448 11.100030 -43.659577 -8.010140 3.130320 -22.796201 -27.245210 19.613695 -5.807104 -2.432469 58.037969 1.842939 10.251904 -11.245844 28.119664 -12.081530 9.662390 10.987598 -20.409775 
310.658173 299.564880 90.547180 140.988441 0.758739 78.463692 1.846758 1.287763 9.974678 -6.063706 -15.181963 16.189958 -4.363133 0.213589 -12.509847 nan nan nan -4.434924 -6.231997 -11.643264 0.166365 -13.206681 12.349240 12.128946 -6.754600 8.520204 nan nan nan -1.664671 -0.332743 16.638356 1.601777 -1.639024 0.203901 2.021272 -2.949927 0.485840 6.595706 -1.823891 -1.120400 8.178249 -3.730255 1.371277 -18.826824 2.112271 -0.001157 -54.862602 -19.121881 10.851030 11.681732 -44.131392 -8.397936 3.148354 -22.615275 -27.167444 19.540053 -5.332672 -2.374309 57.995308 2.131880 10.299258 -11.268085 28.206010 -11.687729 9.979135 10.810657 -19.589077 
